<?xml version="1.0" encoding="UTF-8" standalone="no"?>
<!-- Created with Inkscape (http://www.inkscape.org/) -->

<svg
   version="1.1"
   id="svg2"
   width="256"
   height="256"
   viewBox="0 0 256 255.99999"
   sodipodi:docname="icon.svg"
   inkscape:version="1.2.2 (b0a8486541, 2022-12-01)"
   inkscape:export-filename="icon.png"
   inkscape:export-xdpi="96"
   inkscape:export-ydpi="96"
   xmlns:inkscape="http://www.inkscape.org/namespaces/inkscape"
   xmlns:sodipodi="http://sodipodi.sourceforge.net/DTD/sodipodi-0.dtd"
   xmlns:xlink="http://www.w3.org/1999/xlink"
   xmlns="http://www.w3.org/2000/svg"
   xmlns:svg="http://www.w3.org/2000/svg">
  <defs
     id="defs6">
    <linearGradient
       inkscape:collect="always"
       id="linearGradient3472">
      <stop
         style="stop-color:#4c4c4c;stop-opacity:1;"
         offset="0"
         id="stop3468" />
      <stop
         style="stop-color:#343434;stop-opacity:1;"
         offset="1"
         id="stop3470" />
    </linearGradient>
    <linearGradient
       inkscape:collect="always"
       xlink:href="#linearGradient3472"
       id="linearGradient3474"
       x1="88.169807"
       y1="70.407364"
       x2="454.07706"
       y2="343.64819"
       gradientUnits="userSpaceOnUse"
       gradientTransform="matrix(0.99984789,0,0,0.99912238,6.7022982e-6,-2.0660073e-5)" />
  </defs>
  <sodipodi:namedview
     id="namedview4"
     pagecolor="#505050"
     bordercolor="#ffffff"
     borderopacity="1"
     inkscape:showpageshadow="0"
     inkscape:pageopacity="0"
     inkscape:pagecheckerboard="1"
     inkscape:deskcolor="#505050"
     showgrid="true"
     showguides="true"
     inkscape:zoom="1.2981174"
     inkscape:cx="82.812235"
     inkscape:cy="119.40369"
     inkscape:window-width="1920"
     inkscape:window-height="1015"
     inkscape:window-x="0"
     inkscape:window-y="37"
     inkscape:window-maximized="1"
     inkscape:current-layer="svg2">
    <sodipodi:guide
       position="-74.521605,292.54287"
       orientation="0,-1"
       id="guide6327"
       inkscape:locked="false" />
    <sodipodi:guide
       position="-138.62494,359.94922"
       orientation="0,-1"
       id="guide6329"
       inkscape:locked="false" />
    <sodipodi:guide
       position="-138.60938,359.69446"
       orientation="1,0"
       id="guide6331"
       inkscape:locked="false" />
    <sodipodi:guide
       position="394.38671,359.58118"
       orientation="1,0"
       id="guide6333"
       inkscape:locked="false" />
    <sodipodi:guide
       position="38.821876,371.63927"
       orientation="1,0"
       id="guide6335"
       inkscape:locked="false" />
    <sodipodi:guide
       position="216.43561,311.76311"
       orientation="1,0"
       id="guide6337"
       inkscape:locked="false" />
    <inkscape:grid
       type="xygrid"
       id="grid6345"
       originx="-138.61328"
       originy="-103.95228" />
    <sodipodi:guide
       position="129.4882,71.202086"
       orientation="0,-1"
       id="guide7854"
       inkscape:locked="false" />
    <sodipodi:guide
       position="116.13703,62.785047"
       orientation="1,0"
       id="guide7994"
       inkscape:locked="false" />
    <sodipodi:guide
       position="316.83877,32.312653"
       orientation="1,0"
       id="guide8410"
       inkscape:locked="false" />
    <sodipodi:guide
       position="315.90423,14.886184"
       orientation="0,-1"
       id="guide8619"
       inkscape:locked="false" />
  </sodipodi:namedview>
  <g
     id="g6946"
     inkscape:label="icon"
     style="display:inline"
     transform="matrix(0.41259167,0,0,0.41259167,17.997582,45.493639)">
    <rect
       style="display:inline;fill:url(#linearGradient3474);fill-opacity:1;stroke-width:1.00131"
       id="rect2714"
       width="532.96692"
       height="399.98904"
       x="0.044063531"
       y="-0.023540944"
       rx="19.996958"
       ry="19.982447"
       inkscape:label="background" />
    <rect
       style="display:inline;fill:#dadada;fill-opacity:1;stroke-width:1.00157"
       id="rect8742"
       width="200.02356"
       height="56.595379"
       x="255.44945"
       y="288.53223"
       rx="10"
       ry="10"
       inkscape:label="cursor" />
    <path
       id="prompt_bottom"
       fill="none"
       stroke="#000000"
       stroke-width="1"
       d="m 183.80975,263.87663 c -4.01,5.42 -16.69,17.69 -22,23 0,0 -38,38 -38,38 -5.43,5.43 -16.27,18.63 -24.000003,18.63 -4.99,0 -8.65,-3.39 -12,-6.65 -4.3,-4.16 -18.38,-17.31 -19.98,-21.98 -1.1,-2.63 -0.87,-5.41 0,-8 2.19,-5.35 13.47,-15.49 17.98,-20 0,0 35.000003,-35 35.000003,-35 2.73,-2.73 14.67,-15.14 17,-16.26 4.58,-2.18 10.12,5.38 13,8.26 5.08,5.08 18.63,20.46 25,21.57 2.95,0.51 5.31,-0.56 8,-1.57 z m 25,-26 c 0,0 1,0 1,0 0,0 -1,1 -1,1 0,0 0,-1 0,-1 z"
       style="fill:#a7a7a7;fill-opacity:1;stroke:#a7a7a7;stroke-opacity:1" />
    <path
       id="prompt_top"
       fill="none"
       stroke="#000000"
       stroke-width="1"
       d="m 98.82853,122.76124 c 2.68,0.08 4.45,0.16 6.96,1.32 4.6,2.12 16.86,15.75 21.04,19.93 0,0 62,61.09 62,61.09 7.06,6.58 21.89,18.64 20.89,28.91 -0.49,5.01 -3.54,7.6 -6.89,11 -6.14,6.22 -17.84,20.95 -27,19.77 -5.42,-0.69 -9.33,-5.12 -13,-8.77 0,0 -22.58,-23 -22.58,-23 0,0 -19.42,-20 -19.42,-20 0,0 -30.999997,-31 -30.999997,-31 -4.58,-4.58 -19.210004,-18.31 -21.550004,-23 -2.38,-4.77 -1.18,-8.95 1.94,-13 2.78,-3.61 18.030004,-18.83 21.610004,-21 2.61,-1.58 4.09,-1.83 6.999997,-2.25 z"
       style="fill:#dadada;fill-opacity:1;stroke:#dadada;stroke-opacity:1" />
    <path
       id="rect6341"
       style="display:inline;fill:#666666;fill-opacity:1;stroke-width:1.00157"
       d="M 20.025391,0.07617187 C 8.9454017,0.07617187 0.02539063,8.996183 0.02539063,20.076172 v 27.238281 c 0,0.568601 0.11994731,1.101893 0.16601562,1.658203 V 67.404297 H 533.00195 V 49.490234 c 0.0788,-0.724423 0.21875,-1.429706 0.21875,-2.175781 V 20.076172 c 0,-11.079989 -8.92001,-20.00000013 -20,-20.00000013 z"
       inkscape:label="top_right" />
    <rect
       style="display:inline;fill:#999999;fill-opacity:1;stroke-width:0.922299"
       id="rect6706"
       width="177.64041"
       height="67.379311"
       x="177.42459"
       y="0.021984264"
       inkscape:label="center" />
    <path
       id="rect6831"
       style="fill:#cccccc;fill-opacity:1;stroke-width:1.00157"
       d="M 20.005859,0 C 8.9258705,0 0.00585938,8.9200111 0.00585938,20 v 6.076172 21.242187 20 H 20.005859 177.51172 V 26.076172 20 0 h -20 z"
       inkscape:label="top_left" />
  </g>
</svg>
