<?xml version="1.0" encoding="UTF-8" standalone="no"?>
<!-- Created with Inkscape (http://www.inkscape.org/) -->

<svg
   version="1.1"
   id="svg228"
   width="256"
   height="256"
   viewBox="0 0 256 256"
   sodipodi:docname="lua-icon.svg"
   inkscape:version="1.2.2 (b0a8486541, 2022-12-01)"
   xmlns:inkscape="http://www.inkscape.org/namespaces/inkscape"
   xmlns:sodipodi="http://sodipodi.sourceforge.net/DTD/sodipodi-0.dtd"
   xmlns="http://www.w3.org/2000/svg"
   xmlns:svg="http://www.w3.org/2000/svg">
  <defs
     id="defs232" />
  <sodipodi:namedview
     id="namedview230"
     pagecolor="#505050"
     bordercolor="#ffffff"
     borderopacity="1"
     inkscape:showpageshadow="0"
     inkscape:pageopacity="0"
     inkscape:pagecheckerboard="1"
     inkscape:deskcolor="#505050"
     showgrid="false"
     inkscape:zoom="1.0818136"
     inkscape:cx="70.714587"
     inkscape:cy="179.3285"
     inkscape:window-width="1920"
     inkscape:window-height="1015"
     inkscape:window-x="0"
     inkscape:window-y="37"
     inkscape:window-maximized="1"
     inkscape:current-layer="g234" />
  <g
     inkscape:groupmode="layer"
     inkscape:label="lua"
     id="g234"
     transform="translate(-131.66865,-132.70761)">
    <g
       id="g920"
       transform="matrix(0.49356181,0,0,0.49356181,131.50612,132.09073)">
      <path
         id="background"
         fill="none"
         stroke="#000000"
         stroke-width="1"
         d="m 443.3102,2.061593 c 10.73,-1.33 21.8,-0.38 32,3.27 43.86,15.66 57.47,70.06 28.08,105.299997 -5.38,6.44 -12.56,12.26 -20.08,16.03 -12.36,6.19 -21.52,7.12 -35,6.97 -7.22,-0.09 -14.33,-1.91 -21,-4.6 -32.12,-12.99 -47.96,-48.649997 -37.96,-81.399997 7.72,-25.31 28.36,-41.36 53.96,-45.57 z m -231,65.99 c 15.58,-1.89 43.39,0.86 59,3.98 79.98,15.999997 144.24,73.309997 170,150.599997 5.4,16.2 10.8,41 11,58 0.37,31.72 -0.82,53.33 -10.74,84 -21.87,67.56 -76.7,122.39 -144.26,144.26 -30.67,9.92 -52.28,11.11 -84,10.74 -20.26,-0.24 -48.04,-6.99 -67,-14.19 -26.07,-9.91 -50.249995,-24.24 -70.999995,-42.98 -71.0300003,-64.15 -93.99,-165.23 -58.55,-253.83 24.1,-60.26 73.61,-106.62 134.549995,-128.309997 13.72,-4.88 28.56,-8.46 43,-10.41 0,0 18,-1.86 18,-1.86 z"
         style="display:inline;fill:#000080;fill-opacity:1;stroke:none" />
      <path
         id="text"
         fill="none"
         stroke="#000000"
         stroke-width="1"
         d="m 383.75192,49.496624 c 0,0 1,0 1,0 0,0 -1,1 -1,1 0,0 0,-1 0,-1 z m -68,83.420006 c 6.85,-0.81 18.45,1.01 25,3.28 42.08,14.54 58.66,64.91 32.96,101.3 -4.27,6.05 -11.74,13.09 -17.96,17.14 -7.63,4.95 -15.96,8.29 -25,9.58 0,0 -11,1.2 -11,1.2 -16.88,0 -34.83,-7.4 -46.87,-19.09 -26.05,-25.17 -25.31,-69.41 0,-94.66 12.97,-12.89 25.62,-16.24 42.87,-18.75 z m -240.999996,123.58 c 0,0 20,0 20,0 0,0 0,131.99999 0,131.99999 0,0 72.999996,0 72.999996,0 0,0 0,17 0,17 0,0 -92.999996,0 -92.999996,0 0,0 0,-148.99999 0,-148.99999 z m 240.999996,59.99999 c 0,0 0,-8.99999 0,-8.99999 0,-2.1 -0.25,-5.61 0.99,-7.35 2.23,-3.12 14.05,-5.6 18.01,-6.44 17.47,-3.69 42.86,-3.81 55.68,10.83 7.84,8.96 11.18,23.25999 11.32,34.95999 0,0 0,66 0,66 0,0 -18,0 -18,0 0,0 -1,-16 -1,-16 -12,22.35 -50.17,24.83 -65.7,8.82 -12.05,-12.43 -12.46,-36.88 -0.83,-49.65 3.76,-4.13 9.35,-7.14 14.53,-9.11 7.16,-2.71 18.32,-4.05 26,-4.06 0,0 27,0 27,0 -0.04,-4.03 -0.11,-7.14 -1.56,-11 -8.05,-21.34999 -38.18,-18.67999 -55.44,-12.65999 0,0 -11,4.65999 -11,4.65999 z m -133,-22.99999 c 0,0 18,0 18,0 0,0 0,66.99999 0,66.99999 0.03,17.75 6.69,32.78 27,31.96 18.92,-0.76 29.92,-17.25 30,-34.96 0,0 0,-63.99999 0,-63.99999 0,0 18,0 18,0 0,0 0,111.99999 0,111.99999 0,0 -18,0 -18,0 0,0 0,-16 0,-16 -5.66,6.52 -8.92,10.94 -17,14.87 -19.36,9.42 -45.63,3.52 -53.93,-17.87 -4.8,-12.36 -4.07,-25.98 -4.07,-39 0,0 0,-53.99999 0,-53.99999 z m 201,55.99999 c 0,0 -24,0 -24,0 -5.39,0.01 -11.76,0.63 -17,1.9 -4.57,1.1 -9.39,2.68 -12.46,6.29 -6.39,6.97 -5.99,20.64 0,27.51 11.05,12.23 40.78,11.04 50.53,-13.7 3.19,-8.07 2.93,-13.63 2.93,-22 z"
         style="display:inline;fill:#ffffff;fill-opacity:1;stroke:none;stroke-width:1.00157;stroke-dasharray:none" />
    </g>
  </g>
</svg>
