<?xml version="1.0" encoding="UTF-8" standalone="no"?>
<!-- Created with Inkscape (http://www.inkscape.org/) -->

<svg
   width="256.00003"
   height="256"
   viewBox="0 0 67.733342 67.733334"
   version="1.1"
   id="svg4621"
   xml:space="preserve"
   xmlns="http://www.w3.org/2000/svg"
   xmlns:svg="http://www.w3.org/2000/svg"><defs
     id="defs4618" /><g
     id="layer1"
     transform="matrix(0.12826082,0,0,0.12826082,13.803609,5.6486048)"><path
       id="blue"
       fill="none"
       stroke="#000000"
       stroke-width="1"
       d="m 29.697385,75.106337 c 0,0 0,-33.07292 0,-33.07292 0,0 -0.26459,-4.7625 -0.26459,-4.7625 0,0 0,-25.66458 0,-25.66458 0.008,-4.89744 1.73302,-10.21027 3.90261,-14.55208 6.096,-12.18936 17.85673,-20.46552 29.96406,-26.01119 11.98033,-5.48481 24.13,-8.55133 37.041665,-10.87702 8.30527,-1.49754 16.72696,-2.50031 25.13542,-3.08769 0,0 7.40833,-0.50535 7.40833,-0.50535 0,0 4.23333,-0.27517 4.23333,-0.27517 0,0 3.175,0 3.175,0 0,0 3.175,-0.254 3.175,-0.254 0,0 25.13542,0 25.13542,0 0,0 3.96875,0.26458 3.96875,0.26458 0,0 2.11667,0 2.11667,0 0,0 3.43958,0.26459 3.43958,0.26459 0,0 1.05833,0 1.05833,0 0,0 5.82084,0.48419 5.82084,0.48419 0,0 4.7625,0.35454 4.7625,0.35454 0,0 13.75833,1.73566 13.75833,1.73566 20.11362,2.96334 44.50821,9.69434 60.58958,22.50811 3.08769,2.46062 6.03515,5.05354 8.68627,7.99041 7.41892,8.21267 13.52021,20.48405 13.53873,31.75 0,0 0,120.385413 0,120.385413 0,0 -0.254,3.175 -0.254,3.175 0,0 0,3.70417 0,3.70417 0,0 -0.25135,2.64583 -0.25135,2.64583 -0.72496,9.91394 -3.37873,19.9099 -8.33967,28.575 -9.58321,16.74284 -26.24666,26.18052 -44.60081,30.33448 -4.26508,0.96573 -11.5861,2.20134 -15.875,2.20927 0,0 -131.762495,0 -131.762495,0 0,0 -5.02709,0.26459 -5.02709,0.26459 -5.50069,0.0661 -15.11035,1.8997 -20.37291,3.61685 -6.15421,2.00554 -11.26861,4.33388 -16.66875,7.9375 -15.99671,10.668 -24.93169,27.63573 -28.62792,46.12481 -0.78581,3.92377 -1.79388,10.90084 -1.79917,14.81667 0,0 0,25.4 0,25.4 0,0 0,40.48125 0,40.48125 0,0 -44.97916,0 -44.97916,0 0,0 -3.175,-0.24077 -3.175,-0.24077 -4.55084,-0.31221 -8.88207,-1.0504 -13.22917,-2.49238 -4.63286,-1.53987 -8.77358,-3.32316 -12.96458,-5.85258 -24.78353,-14.94896 -36.21617,-43.64302 -41.645425,-70.78927 -1.03187,-5.16202 -2.413,-13.8721 -2.82575,-19.05 0,0 -1.30175,-17.4625 -1.30175,-17.4625 0,0 -0.26458,-4.49792 -0.26458,-4.49792 0,0 0,-21.69583 0,-21.69583 0,0 0.26458,-5.55625 0.26458,-5.55625 0,0 0.24077,-2.64583 0.24077,-2.64583 0,0 1.80446,-17.99167 1.80446,-17.99167 3.60363,-24.9899 12.337525,-52.43248 31.292275,-70.09077 4.4106,-4.11163 9.32392,-7.62 14.55208,-10.60715 4.38944,-2.508247 9.95098,-4.807473 14.81667,-6.196533 4.7916,-1.3679 11.7131,-2.79135 16.66875,-2.79929 0,0 186.266665,0 186.266665,0 0,0 0,-17.99167 0,-17.99167 0,0 -128.587495,0 -128.587495,0 z m 55.03333,-78.232 c -2.80194,0.35719 -3.97404,0.23813 -6.87917,1.17211 -5.07206,1.62454007 -9.38477,5.13556 -12.25021,9.59114 -6.55637,10.1944 -3.72798,24.12471 6.1648,31.10442 4.13808,2.921 7.97983,3.97139 12.96458,4.15396 2.71462,0.0979 5.36839,-0.35984 7.9375,-1.21444 2.5056,-0.83608 4.54289,-1.90765 6.614581,-3.56658 11.001374,-8.80269 11.845394,-24.81792 1.852084,-34.71069 -2.063744,-2.03994 -4.664605,-3.84439993 -7.408335,-4.8445199 -2.87073,-1.0451101 -5.92666,-1.7515401 -8.99583,-1.6854001 z"
       style="display:inline;fill:#3771a1;fill-opacity:1;stroke:none" /><path
       id="yellow"
       fill="none"
       stroke="#000000"
       stroke-width="1"
       d="m 302.20048,88.943776 c 0,0 47.88959,0 47.88959,0 4.7916,0.0079 11.09398,1.643063 15.61042,3.257021 16.61848,5.931959 29.32641,18.867443 37.79837,34.049253 6.94267,12.44071 10.86908,24.79411 13.9065,38.62918 0.91281,4.15132 3.05858,15.45962 3.06388,19.3146 0,0 0,29.89796 0,29.89796 0,0 0,40.21667 0,40.21667 0,0 -0.99219,7.40833 -0.99219,7.40833 0,0 -3.14325,14.81667 -3.14325,14.81667 -5.60917,22.43667 -17.19527,44.94742 -36.87498,58.0734 -5.65944,3.77295 -11.55171,6.54579 -17.99167,8.68891 -4.88156,1.62719 -12.88256,3.34434 -17.99166,3.35227 0,0 -187.06051,0 -187.06051,0 0,0 0,17.99167 0,17.99167 0,0 128.85216,0 128.85216,0 0,0 0,41.53958 0,41.53958 0,0 0,17.4625 0,17.4625 0,0 0.254,2.91042 0.254,2.91042 0.082,1.89706 -0.34926,5.25462 -0.7329,7.14375 -2.23838,11.01725 -9.78165,20.00515 -18.57112,26.59856 -14.52034,10.89025 -35.19754,16.58144 -52.91669,19.55271 -14.81668,2.48708 -30.76313,3.83117 -45.77295,3.85498 0,0 -4.49792,0.26458 -4.49792,0.26458 0,0 -7.9375,0 -7.9375,0 0,0 -3.96875,-0.26458 -3.96875,-0.26458 0,0 -5.55626,0 -5.55626,0 0,0 -3.175,-0.254 -3.175,-0.254 0,0 -3.175,0 -3.175,0 0,0 -2.91041,-0.26458 -2.91041,-0.26458 0,0 -17.46251,-1.524 -17.46251,-1.524 -11.2157,-1.38377 -24.484553,-3.68565 -35.189587,-7.21784 -5.992807,-1.97908 -10.921994,-3.71739 -16.668741,-6.42937 -16.486181,-7.77611 -31.226102,-20.29354 -36.586559,-38.28521 -0.70909,-2.3786 -1.49754,-6.00869 -1.76742,-8.46667 0,0 0,-2.11666 0,-2.11666 0,0 -0.26987,-2.38125 -0.26987,-2.38125 0,0 0.25929,-4.23334 0.25929,-4.23334 0,0 0,-118.26875 0,-118.26875 0,0 0.254,-3.43958 0.254,-3.43958 0.62971,-14.42508 5.326057,-28.94277 14.903971,-39.95208 10.218194,-11.7475 24.397218,-18.24567 39.346159,-21.54238 4.093107,-0.90223 11.493494,-2.00025 15.610411,-2.00554 0,0 132.027156,0 132.027156,0 0,0 3.17501,-0.27517 3.17501,-0.27517 0,0 2.38125,0 2.38125,0 6.44525,-0.64823 12.88785,-1.64041 19.05001,-3.69358 5.84993,-1.94998 11.58081,-4.46088 16.66876,-7.99042 15.41992,-10.70504 24.46867,-27.03781 28.09876,-45.19088 0.71702,-3.58776 1.75683,-9.39272 1.79916,-12.96459 0,0 0.26459,-4.49793 0.26459,-4.49793 0,0 0,-22.75418 0,-22.75418 0,0 0,-41.010434 0,-41.010434 z M 227.05877,396.99561 c -11.74222,1.79387 -19.85964,10.45104 -20.36234,22.41285 -0.0529,1.28323 0.0688,1.70656 0.21431,2.91042 1.28587,10.75795 9.25777,19.16377 20.14803,20.38614 1.56898,0.17727 2.31775,0.37306 3.96875,0.17727 4.85776,-0.57679 8.40053,-1.51871 12.43543,-4.46616 2.21985,-1.6219 4.3471,-3.97405 5.80495,-6.30767 7.37131,-11.81629 2.74638,-27.49021 -10.03829,-33.25548 -3.84439,-1.73302 -7.99307,-2.24896 -12.17084,-1.85737 z"
       style="display:inline;fill:#ffce3e;fill-opacity:1;stroke:none;stroke-opacity:1" /></g></svg>
