<?xml version="1.0" encoding="UTF-8" standalone="no"?>
<!-- Created with Inkscape (http://www.inkscape.org/) -->

<svg
   width="256"
   height="256"
   viewBox="0 0 67.733334 67.733332"
   version="1.1"
   id="svg5"
   xml:space="preserve"
   inkscape:version="1.2.2 (b0a8486541, 2022-12-01)"
   sodipodi:docname="icon.svg"
   xmlns:inkscape="http://www.inkscape.org/namespaces/inkscape"
   xmlns:sodipodi="http://sodipodi.sourceforge.net/DTD/sodipodi-0.dtd"
   xmlns="http://www.w3.org/2000/svg"
   xmlns:svg="http://www.w3.org/2000/svg"><sodipodi:namedview
     id="namedview7"
     pagecolor="#505050"
     bordercolor="#ffffff"
     borderopacity="1"
     inkscape:showpageshadow="0"
     inkscape:pageopacity="0"
     inkscape:pagecheckerboard="1"
     inkscape:deskcolor="#505050"
     inkscape:document-units="mm"
     showgrid="false"
     inkscape:zoom="1.6774973"
     inkscape:cx="76.006083"
     inkscape:cy="101.34144"
     inkscape:window-width="1920"
     inkscape:window-height="1015"
     inkscape:window-x="0"
     inkscape:window-y="37"
     inkscape:window-maximized="1"
     inkscape:current-layer="layer1" /><defs
     id="defs2" /><g
     inkscape:label="icon"
     inkscape:groupmode="layer"
     id="layer1"
     transform="translate(-2.5893666,-114.93285)"><path
       id="white"
       fill="none"
       stroke="#000000"
       stroke-width="0.252178"
       d="m 35.688729,115.00257 c 0,0 1.000832,0 1.000832,0 2.353957,-0.003 4.074051,1.21634 6.004992,2.37464 0,0 8.006655,4.75061 8.006655,4.75061 0,0 8.874044,5.27105 8.874044,5.27105 1.088905,0.65321 2.536776,1.40984 3.46955,2.22118 1.632692,1.41985 2.865717,3.79382 2.869053,5.98564 0,0 0,26.2218 0,26.2218 -0.0033,2.14512 -1.207671,4.5211 -2.802329,5.91892 -0.974144,0.85471 -2.221848,1.49925 -3.336108,2.1678 0,0 -11.27604,6.6869 -11.27604,6.6869 0,0 -6.071716,3.60299 -6.071716,3.60299 -0.946785,0.54979 -1.859543,1.17965 -2.86905,1.61134 -1.103585,0.47173 -2.209837,0.6432 -3.402829,0.62919 -2.322598,-0.0274 -4.095404,-1.25638 -6.004992,-2.402 0,0 -7.539601,-4.47038 -7.539601,-4.47038 0,0 -9.07421,-5.39115 -9.07421,-5.39115 -1.265051,-0.75863 -2.861712,-1.58865 -3.9366054,-2.56012 -1.5653012,-1.41451 -2.6655491,-3.80717 -2.6688852,-5.92693 0,0 0,-25.95491 0,-25.95491 0.004,-2.53611 1.4298553,-5.11025 3.4695506,-6.5768 0,0 4.937438,-2.97781 4.937438,-2.97781 0,0 10.808985,-6.41867 10.808985,-6.41867 0,0 4.07005,-2.41534 4.07005,-2.41534 1.003501,-0.60183 2.404667,-1.50058 3.469552,-1.89157 0.799329,-0.29291 1.188321,-0.32427 2.001664,-0.45638 z"
       style="display:inline;fill:#ffffff;fill-opacity:1;stroke:none;stroke-opacity:1" /><path
       id="grey"
       fill="none"
       stroke="#000000"
       stroke-width="0.252178"
       d="m 35.488562,115.1099 c 1.277728,-0.15547 2.811003,0.054 4.003328,0.53577 0.799998,0.32294 2.705582,1.48657 3.536272,1.98499 0,0 7.606323,4.52375 7.606323,4.52375 0,0 8.206823,4.87072 8.206823,4.87072 1.3251,0.79532 3.381477,1.89223 4.470382,2.88039 1.758796,1.59532 2.66555,4.05403 2.668887,6.39398 0,0 0,20.15008 0,20.15008 0,0 0,3.26939 0,3.26939 0,2.45871 0.0047,4.39565 -1.451207,6.53877 -1.441867,2.12377 -3.425515,2.97981 -5.554617,4.25688 0,0 -10.275209,6.0984 -10.275209,6.0984 0,0 -5.471215,3.2427 -5.471215,3.2427 -1.325769,0.79399 -3.016508,1.93361 -4.470383,2.3673 -1.001499,0.29825 -1.774141,0.32694 -2.802329,0.31493 -2.085734,-0.0247 -3.546282,-1.06689 -5.271049,-2.04971 0,0 -4.270216,-2.54077 -4.270216,-2.54077 0,0 -3.936606,-2.33528 -3.936606,-2.33528 0,0 -8.740599,-5.18965 -8.740599,-5.18965 -0.937446,-0.54379 -2.981812,-1.70675 -3.73644,-2.32727 -1.6960761,-1.3965 -3.0658815,-3.80316 -3.0692176,-6.04103 0,0 0,-26.48869 0,-26.48869 6.557e-4,-0.54311 0.1074226,-1.07622 0.2422012,-1.60133 0.5311083,-2.07372 1.7814809,-3.79381 3.5609604,-4.9808 0,0 1.601331,-0.95746 1.601331,-0.95746 0,0 3.602995,-2.13578 3.602995,-2.13578 0,0 10.475375,-6.21783 10.475375,-6.21783 0,0 4.136772,-2.45604 4.136772,-2.45604 1.926935,-1.13427 2.644198,-1.76013 4.937438,-2.10641 z M 64.2458,134.76489 c -0.04337,-0.51576 -0.288907,-1.203 -0.517764,-1.66805 -0.387656,-0.78932 -0.893409,-1.53194 -1.550621,-2.12377 -0.865387,-0.77998 -2.487402,-1.63736 -3.536274,-2.26655 0,0 -14.41198,-8.56711 -14.41198,-8.56711 0,0 -3.402829,-2.01635 -3.402829,-2.01635 -0.980815,-0.5698 -1.473225,-0.95545 -2.602163,-1.27772 -0.845369,-0.24154 -1.341115,-0.23887 -2.20183,-0.22886 -1.744784,0.0207 -3.295406,1.08357 -4.737272,1.94828 0,0 -6.939101,4.12343 -6.939101,4.12343 0,0 -10.208486,6.05837 -10.208486,6.05837 -1.033526,0.61985 -2.619511,1.46121 -3.469551,2.22651 -1.4318573,1.28907 -2.2658837,3.27339 -2.2685528,5.19298 0,0 0,25.28769 0,25.28769 0.00267,1.92427 0.8333595,3.90058 2.2685528,5.19299 0.864051,0.77798 2.122431,1.42118 3.13594,2.02635 0,0 4.136772,2.45605 4.136772,2.45605 0,0 13.544593,8.04602 13.544593,8.04602 0.947454,0.56847 2.078394,1.29975 3.13594,1.59933 0.785319,0.22285 1.270389,0.23286 2.068386,0.22886 0.28824,-0.001 0.535112,-0.0107 0.800666,-0.13345 -1.23436,-0.36296 -1.787486,-1.89557 -1.801498,-3.06921 0,0 0,-10.74227 0,-10.74227 0,0 0,-14.41199 0,-14.41199 0.0027,-1.55396 0.695912,-3.05121 1.804166,-4.13077 0.83336,-0.81201 1.75546,-1.3638 2.732939,-1.96897 0,0 11.609651,-7.19064 11.609651,-7.19064 0,0 6.939103,-4.29757 6.939103,-4.29757 0.985484,-0.5945 2.259876,-1.56263 3.46955,-1.48857 0.610508,0.0374 1.154292,0.31626 1.581313,0.74728 0,0 0.42035,0.44771 0.42035,0.44771 z m -18.949085,19.54958 c 0,0 0,-1.46789 0,-1.46789 -0.002,-0.15679 -0.0013,-0.44236 -0.123436,-0.55713 -0.180817,-0.1688 -0.578481,0.14879 -0.743952,0.25155 -0.208173,0.12944 -0.547788,0.32026 -0.687238,0.51242 -0.217514,0.29959 -0.114095,1.19566 -0.11276,1.59466 0,0 0,0.40034 0,0.40034 -0.02202,0.38298 -0.279566,0.48373 -0.531775,0.73661 -0.243536,0.24354 -0.56447,0.64387 -0.758631,0.93144 -0.687905,1.01952 -1.15029,2.29791 -1.178313,3.53628 -0.02936,1.31242 0.478398,2.34928 1.867552,2.58348 0.28824,0.048 0.575145,0.0841 0.867388,0.0854 0.775311,0.003 1.678062,0.028 1.938945,0.93411 0.0447,0.1548 0.06272,0.30626 0.05071,0.46706 -0.120767,1.59733 -1.669387,2.92843 -3.257374,2.85571 -0.437697,-0.007 -0.694578,-0.17148 -0.919431,0 -0.172811,0.11276 -0.223519,0.35362 -0.272894,0.54712 0,0 -0.282902,1.201 -0.282902,1.201 -0.04003,0.17748 -0.09608,0.405 0.04737,0.55246 0.145454,0.14879 0.495745,0.17548 0.69391,0.18081 0.834694,0.02 1.062217,-0.16413 1.801498,-0.33294 0,0 0,1.53461 0,1.53461 0.0047,0.23887 0.01001,0.49241 0.334945,0.42035 0.132777,-0.03 0.342952,-0.16013 0.46572,-0.23019 0.230859,-0.13145 0.599165,-0.31026 0.743952,-0.53044 0.194161,-0.29625 0.122769,-1.27373 0.123436,-1.66138 0.0013,-0.6759 0.09208,-0.5231 0.661216,-1.13428 0.226188,-0.24287 0.549791,-0.65788 0.737947,-0.93411 0.689907,-1.01084 1.055544,-2.19116 1.142283,-3.40283 0,0 0.03603,-0.46706 0.03603,-0.46706 -0.06339,-1.25704 -0.406338,-2.32193 -1.77681,-2.64019 -0.960799,-0.22352 -2.991821,0.14812 -2.971804,-1.22969 0.02068,-1.43119 1.414509,-2.5161 2.771637,-2.58816 0,0 0.467055,0.0414 0.467055,0.0414 0.15613,0.012 0.31226,0.0113 0.439032,-0.0954 0.218848,-0.18349 0.392326,-1.11559 0.470391,-1.42785 0.05004,-0.20084 0.188156,-0.5965 0.0774,-0.77999 -0.09942,-0.16347 -0.411009,-0.17548 -0.586488,-0.18682 -0.485737,-0.032 -1.090907,0.10542 -1.534609,0.29958 z"
       style="display:inline;fill:#2f3a3e;fill-opacity:1;stroke:#2f3a3e;stroke-opacity:1" /><path
       id="green"
       fill="none"
       stroke="#000000"
       stroke-width="0.252178"
       d="m 56.203361,163.75418 c 0.02669,0 0.12277,-0.0427 0.202837,0.046 0.106754,0.11944 0.06872,0.8347 0.06805,1.02419 -0.0013,0.82668 -0.411008,0.85271 -1.067553,1.25504 0,0 -3.13594,1.90758 -3.13594,1.90758 -0.230858,0.13879 -1.201665,0.78132 -1.391156,0.78666 -0.254878,0.007 -0.209508,-0.37898 -0.210175,-0.54646 0,0 0,-0.66722 0,-0.66722 0.0013,-0.15279 -0.0067,-0.32293 0.06806,-0.46105 0.139449,-0.25554 0.918764,-0.66455 1.199664,-0.83336 0,0 2.668884,-1.58798 2.668884,-1.58798 0,0 1.597327,-0.92344 1.597327,-0.92344 z"
       style="fill:#3ab14a;fill-opacity:1;stroke:none" /></g></svg>
