<?xml version="1.0" encoding="UTF-8" standalone="no"?>
<!-- Created with Inkscape (http://www.inkscape.org/) -->

<svg
   width="560"
   height="560"
   viewBox="0 0 148.16666 148.16667"
   version="1.1"
   id="svg2170"
   inkscape:version="1.2.2 (b0a8486541, 2022-12-01)"
   sodipodi:docname="icon.svg"
   inkscape:export-filename="lottiebox-logo.png"
   inkscape:export-xdpi="300"
   inkscape:export-ydpi="300"
   xml:space="preserve"
   xmlns:inkscape="http://www.inkscape.org/namespaces/inkscape"
   xmlns:sodipodi="http://sodipodi.sourceforge.net/DTD/sodipodi-0.dtd"
   xmlns:xlink="http://www.w3.org/1999/xlink"
   xmlns="http://www.w3.org/2000/svg"
   xmlns:svg="http://www.w3.org/2000/svg"><sodipodi:namedview
     id="namedview2172"
     pagecolor="#ffffff"
     bordercolor="#666666"
     borderopacity="1.0"
     inkscape:showpageshadow="2"
     inkscape:pageopacity="0.0"
     inkscape:pagecheckerboard="0"
     inkscape:deskcolor="#d1d1d1"
     inkscape:document-units="px"
     showgrid="false"
     inkscape:zoom="0.7520978"
     inkscape:cx="317.77782"
     inkscape:cy="158.2241"
     inkscape:window-width="1920"
     inkscape:window-height="1015"
     inkscape:window-x="0"
     inkscape:window-y="37"
     inkscape:window-maximized="1"
     inkscape:current-layer="layer1"
     showguides="true"><sodipodi:guide
       position="57.642876,149.89036"
       orientation="0,-1"
       id="guide378"
       inkscape:locked="false" /><sodipodi:guide
       position="62.203446,13.594085"
       orientation="0,-1"
       id="guide381"
       inkscape:locked="false" /><sodipodi:guide
       position="125.90593,131.92103"
       orientation="0,-1"
       id="guide1414"
       inkscape:locked="false" /><sodipodi:guide
       position="125.90593,44.477385"
       orientation="0,-1"
       id="guide1416"
       inkscape:locked="false" /></sodipodi:namedview><defs
     id="defs2167"><linearGradient
       inkscape:collect="always"
       id="linearGradient33580"><stop
         style="stop-color:#169485;stop-opacity:1;"
         offset="0"
         id="stop33586" /><stop
         style="stop-color:#58e4c9;stop-opacity:1;"
         offset="1"
         id="stop33576" /></linearGradient><linearGradient
       inkscape:collect="always"
       id="linearGradient33572"><stop
         style="stop-color:#009472;stop-opacity:1;"
         offset="0"
         id="stop33570" /><stop
         style="stop-color:#00eebe;stop-opacity:1;"
         offset="1"
         id="stop33568" /></linearGradient><inkscape:perspective
       sodipodi:type="inkscape:persp3d"
       inkscape:vp_x="-194.24406 : 213.25587 : 1"
       inkscape:vp_y="0 : 3523.3394 : 0"
       inkscape:vp_z="476.9881 : 213.25587 : 1"
       inkscape:persp3d-origin="162.57531 : -326.03756 : 1"
       id="perspective1740" /><filter
       style="color-interpolation-filters:sRGB"
       inkscape:label="Drop Shadow"
       id="filter32485"
       x="-0.001895953"
       y="-0.002094357"
       width="1.0151823"
       height="1.0166726"><feFlood
         flood-opacity="1"
         flood-color="rgb(0,108,81)"
         result="flood"
         id="feFlood32475" /><feComposite
         in="flood"
         in2="SourceGraphic"
         operator="in"
         result="composite1"
         id="feComposite32477" /><feGaussianBlur
         in="composite1"
         stdDeviation="0"
         result="blur"
         id="feGaussianBlur32479" /><feOffset
         dx="3"
         dy="3"
         result="offset"
         id="feOffset32481" /><feComposite
         in="SourceGraphic"
         in2="offset"
         operator="over"
         result="composite2"
         id="feComposite32483" /></filter><linearGradient
       inkscape:collect="always"
       xlink:href="#linearGradient33572"
       id="linearGradient33574"
       x1="388.20053"
       y1="-831.14697"
       x2="-1077.2596"
       y2="469.23798"
       gradientUnits="userSpaceOnUse"
       gradientTransform="matrix(0.02905385,0,0,0.02905385,396.4892,392.92047)" /><linearGradient
       inkscape:collect="always"
       xlink:href="#linearGradient33580"
       id="linearGradient33582"
       x1="395.39639"
       y1="189.38615"
       x2="654.36279"
       y2="403.82077"
       gradientUnits="userSpaceOnUse"
       gradientTransform="matrix(0.17045189,0,0,0.17045189,6.4341807,6.2632143)" /></defs><g
     inkscape:label="logo"
     inkscape:groupmode="layer"
     id="layer1"
     style="display:inline"
     transform="translate(-333.91946,-330.22485)"><g
       sodipodi:type="inkscape:box3d"
       id="g1742"
       style="display:inline;fill:#00ddb3;stroke:#008a6f;stroke-width:1.00012;stroke-linejoin:bevel;stroke-dasharray:none;stroke-opacity:0.266667;paint-order:stroke fill markers;stop-color:#000000"
       inkscape:perspectiveID="#perspective1740"
       inkscape:corner0="0.83698358 : 0.11523548 : 0 : 1"
       inkscape:corner7="0.38871888 : 0.074565099 : 0.25 : 1"
       inkscape:label="box"
       transform="translate(1.1112417e-5)"><path
         id="path1754"
         style="fill:#e9e9ff;fill-rule:evenodd;stroke:none;stroke-width:1.00012;stroke-linejoin:round;stroke-dasharray:none"
         inkscape:label="back-right"
         d="M 402.19099,336.65856 V 405.32 l 68.76428,36.25154 v -87.44377 z" /><path
         id="path1744"
         style="display:inline;fill:#353564;fill-rule:evenodd;stroke:none;stroke-width:1.00159;stroke-linejoin:round;stroke-dasharray:none;stroke-opacity:1;paint-order:stroke fill markers;stop-color:#000000"
         inkscape:label="back-left"
         d="m 402.70776,337.15878 -57.63886,8.64082 v 77.55599 l 57.63886,-17.93121 z" /><path
         id="path1752"
         style="display:inline;fill:#353564;fill-opacity:1;fill-rule:evenodd;stroke:none;stroke-width:1.00012;stroke-linejoin:round;stroke-dasharray:none;stroke-opacity:1;paint-order:stroke fill markers;stop-color:#000000"
         inkscape:label="bottom"
         d="m 402.19099,405.32 -57.13863,18.03559 62.69954,48.5991 63.20337,-30.38315 z" /><path
         id="path1746"
         style="display:inline;fill:#008a6f;fill-opacity:1;fill-rule:evenodd;stroke:none;stroke-width:1.00012;stroke-linejoin:round;stroke-dasharray:none;stroke-opacity:0.266667;paint-order:stroke fill markers;stop-color:#000000"
         inkscape:label="top"
         d="m 402.18892,336.66063 -57.13863,8.69094 62.69954,23.41976 63.20337,-14.64149 z" /><path
         id="path1750"
         style="fill:url(#linearGradient33582);fill-opacity:1;fill-rule:evenodd;stroke:none;stroke-width:1.00013;stroke-linejoin:round;stroke-dasharray:none;stroke-opacity:1"
         inkscape:label="front-right"
         d="m 470.9532,354.12777 -63.20337,14.64149 v 103.18543 l 63.20337,-30.38315 z" /><path
         id="path1748"
         style="display:inline;fill:url(#linearGradient33574);fill-opacity:1;fill-rule:evenodd;stroke:none;stroke-width:0.0290573;stroke-linejoin:round;stroke-dasharray:none;stroke-opacity:1;paint-order:stroke fill markers;stop-color:#000000"
         inkscape:label="front-left"
         d="m 345.0627,345.35312 v 78.00557 l 62.69953,48.59911 V 368.77236 Z m 41.16803,33.85374 c 1.1332,0.007 2.57449,0.25021 3.51399,0.47336 1.0481,0.2485 2.0662,0.587 3.06648,0.98702 0.8677,0.34682 1.47284,0.58664 2.21021,1.19321 0.8041,0.66205 1.51028,1.67563 1.99419,2.59519 0.85372,1.62175 1.32151,3.83297 0.90795,5.63738 -0.24443,1.06701 -0.84376,2.11205 -1.95543,2.44533 -0.3148,0.0942 -0.57885,0.0837 -0.90176,0.0801 -0.71345,-0.009 -1.14572,-0.30442 -1.75906,-0.56689 -0.8041,-0.34412 -1.5903,-0.66783 -2.435,-0.90279 -0.67874,-0.18852 -1.3321,-0.27536 -2.02933,-0.3421 -0.20294,-0.0194 -0.27601,-0.0422 -0.49609,-0.0372 l -0.40618,0.0408 c -2.53952,0.17769 -4.3432,1.68497 -5.8229,3.65714 -1.48148,1.97533 -2.67309,4.39719 -3.72794,6.62957 l -1.89446,4.01371 -1.12344,2.34508 c -0.94031,2.04792 -2.11939,4.60635 -3.30368,6.49417 -1.56851,2.50071 -3.55665,5.08472 -6.54172,5.90145 -0.77931,0.21331 -1.49555,0.28646 -2.30011,0.27699 l -0.45062,-0.0408 c -1.27764,-0.0933 -2.44405,-0.48795 -3.60805,-1.00252 -1.00165,-0.44287 -2.88492,-1.51483 -3.64887,-2.25671 -1.01247,-0.98269 -1.77683,-2.6912 -2.11822,-4.05091 -0.11094,-0.44063 -0.27053,-1.31756 -0.27595,-1.75907 v -0.81184 c 6.6e-4,-0.39597 0.0741,-0.79054 0.17466,-1.17253 0.27375,-1.03683 1.02219,-1.85494 2.17041,-1.51309 0.39596,0.11771 1.17322,0.63112 1.5782,0.86248 0.83027,0.47488 2.24082,1.0455 3.20187,1.05678 0.41536,0.004 0.76176,0.0114 1.17306,-0.0749 1.61499,-0.33868 2.82399,-1.51828 3.76204,-2.81171 1.48691,-2.05018 2.59944,-4.49997 3.62769,-6.80992 l 2.56263,-5.63739 1.06557,-2.39003 c 0.65439,-1.42512 1.34804,-2.82441 2.11202,-4.19406 1.59423,-2.85791 3.69903,-5.63763 6.66832,-7.15925 0.83026,-0.42573 1.87705,-0.77352 2.7957,-0.93948 l 0.99219,-0.14676 0.49609,-0.0341 c 0.21875,-0.0266 0.46403,-0.0374 0.72554,-0.0357 z" /></g></g></svg>
