<?xml version="1.0" encoding="UTF-8" standalone="no"?>
<!-- Created with Inkscape (http://www.inkscape.org/) -->

<svg
   width="475.86111"
   height="511.36374"
   viewBox="0 0 125.90492 135.29833"
   version="1.1"
   id="svg2170"
   inkscape:version="1.2.2 (b0a8486541, 2022-12-01)"
   sodipodi:docname="icon.svg"
   inkscape:export-filename="lottiebox-logo.png"
   inkscape:export-xdpi="300"
   inkscape:export-ydpi="300"
   xml:space="preserve"
   xmlns:inkscape="http://www.inkscape.org/namespaces/inkscape"
   xmlns:sodipodi="http://sodipodi.sourceforge.net/DTD/sodipodi-0.dtd"
   xmlns:xlink="http://www.w3.org/1999/xlink"
   xmlns="http://www.w3.org/2000/svg"
   xmlns:svg="http://www.w3.org/2000/svg"><sodipodi:namedview
     id="namedview2172"
     pagecolor="#ffffff"
     bordercolor="#666666"
     borderopacity="1.0"
     inkscape:showpageshadow="2"
     inkscape:pageopacity="0.0"
     inkscape:pagecheckerboard="0"
     inkscape:deskcolor="#d1d1d1"
     inkscape:document-units="px"
     showgrid="false"
     inkscape:zoom="0.35355339"
     inkscape:cx="651.95245"
     inkscape:cy="690.13621"
     inkscape:window-width="1920"
     inkscape:window-height="1023"
     inkscape:window-x="1366"
     inkscape:window-y="29"
     inkscape:window-maximized="1"
     inkscape:current-layer="layer1"
     showguides="true"><sodipodi:guide
       position="57.642878,135.79626"
       orientation="0,-1"
       id="guide378"
       inkscape:locked="false" /><sodipodi:guide
       position="62.203448,-0.50002371"
       orientation="0,-1"
       id="guide381"
       inkscape:locked="false" /><sodipodi:guide
       position="125.90593,117.82693"
       orientation="0,-1"
       id="guide1414"
       inkscape:locked="false" /><sodipodi:guide
       position="125.90593,30.383277"
       orientation="0,-1"
       id="guide1416"
       inkscape:locked="false" /></sodipodi:namedview><defs
     id="defs2167"><linearGradient
       inkscape:collect="always"
       id="linearGradient33580"><stop
         style="stop-color:#169485;stop-opacity:1;"
         offset="0"
         id="stop33586" /><stop
         style="stop-color:#58e4c9;stop-opacity:1;"
         offset="1"
         id="stop33576" /></linearGradient><linearGradient
       inkscape:collect="always"
       id="linearGradient33572"><stop
         style="stop-color:#009472;stop-opacity:1;"
         offset="0"
         id="stop33570" /><stop
         style="stop-color:#00eebe;stop-opacity:1;"
         offset="1"
         id="stop33568" /></linearGradient><inkscape:perspective
       sodipodi:type="inkscape:persp3d"
       inkscape:vp_x="-194.24407 : 199.16176 : 1"
       inkscape:vp_y="0 : 3523.3394 : 0"
       inkscape:vp_z="476.98813 : 199.16176 : 1"
       inkscape:persp3d-origin="162.57532 : -340.13166 : 1"
       id="perspective1740" /><filter
       style="color-interpolation-filters:sRGB"
       inkscape:label="Drop Shadow"
       id="filter32485"
       x="-0.001895953"
       y="-0.002094357"
       width="1.0151823"
       height="1.0166726"><feFlood
         flood-opacity="1"
         flood-color="rgb(0,108,81)"
         result="flood"
         id="feFlood32475" /><feComposite
         in="flood"
         in2="SourceGraphic"
         operator="in"
         result="composite1"
         id="feComposite32477" /><feGaussianBlur
         in="composite1"
         stdDeviation="0"
         result="blur"
         id="feGaussianBlur32479" /><feOffset
         dx="3"
         dy="3"
         result="offset"
         id="feOffset32481" /><feComposite
         in="SourceGraphic"
         in2="offset"
         operator="over"
         result="composite2"
         id="feComposite32483" /></filter><linearGradient
       inkscape:collect="always"
       xlink:href="#linearGradient33572"
       id="linearGradient33574"
       x1="388.20053"
       y1="-831.14697"
       x2="-1077.2596"
       y2="469.23798"
       gradientUnits="userSpaceOnUse"
       gradientTransform="matrix(0.02905385,0,0,0.02905385,385.35421,386.48573)" /><linearGradient
       inkscape:collect="always"
       xlink:href="#linearGradient33580"
       id="linearGradient33582"
       x1="395.39639"
       y1="189.38615"
       x2="654.36279"
       y2="403.82077"
       gradientUnits="userSpaceOnUse"
       gradientTransform="matrix(0.17045189,0,0,0.17045189,-4.6987322,-0.1715282)" /></defs><g
     inkscape:label="logo"
     inkscape:groupmode="layer"
     id="layer1"
     style="display:inline"
     transform="translate(-333.91946,-330.22485)"><g
       sodipodi:type="inkscape:box3d"
       id="g1742"
       style="display:inline;fill:#00ddb3;stroke:#008a6f;stroke-width:1.00012;stroke-linejoin:bevel;stroke-dasharray:none;stroke-opacity:0.266667;paint-order:stroke fill markers;stop-color:#000000"
       inkscape:perspectiveID="#perspective1740"
       inkscape:corner0="0.83698358 : 0.11523548 : 0 : 1"
       inkscape:corner7="0.38871888 : 0.074565099 : 0.25 : 1"
       inkscape:label="box"
       transform="translate(1.1112417e-5)"><path
         id="path1754"
         style="fill:#e9e9ff;fill-rule:evenodd;stroke:none;stroke-width:1.00012;stroke-linejoin:round;stroke-dasharray:none"
         inkscape:label="back-right"
         d="M 391.05601 330.22382 L 391.05601 398.88526 L 459.82029 435.1368 L 459.82029 347.69303 L 391.05601 330.22382 z " /><path
         id="path1744"
         style="display:inline;fill:#353564;fill-rule:evenodd;stroke:none;stroke-width:1.00012;stroke-linejoin:round;stroke-dasharray:none;stroke-opacity:1;paint-order:stroke fill markers;stop-color:#000000"
         inkscape:label="back-left"
         d="M 391.05624 330.22397 L 333.91744 338.91492 L 333.91744 416.92083 L 391.05624 398.8856 L 391.05624 330.22397 z "
         transform="matrix(1.0087516,0,0,0.99423214,-2.9058294,2.4047586)" /><path
         id="path1752"
         style="display:inline;fill:#353564;fill-opacity:1;fill-rule:evenodd;stroke:none;stroke-width:1.00012;stroke-linejoin:round;stroke-dasharray:none;stroke-opacity:1;paint-order:stroke fill markers;stop-color:#000000"
         inkscape:label="bottom"
         d="M 391.05601 398.88526 L 333.91738 416.92085 L 396.61692 465.51995 L 459.82029 435.1368 L 391.05601 398.88526 z " /><path
         id="path1746"
         style="display:inline;fill:#008a6f;fill-opacity:1;fill-rule:evenodd;stroke:none;stroke-width:1.00012;stroke-linejoin:round;stroke-dasharray:none;stroke-opacity:0.266667;paint-order:stroke fill markers;stop-color:#000000"
         inkscape:label="top"
         d="M 391.05601 330.22382 L 333.91738 338.91476 L 396.61692 362.33452 L 459.82029 347.69303 L 391.05601 330.22382 z "
         transform="translate(-0.00206706,0.00206706)" /><path
         id="path1750"
         style="fill:url(#linearGradient33582);fill-opacity:1;fill-rule:evenodd;stroke:none;stroke-width:1.00013;stroke-linejoin:round;stroke-dasharray:none;stroke-opacity:1"
         inkscape:label="front-right"
         d="M 459.82029 347.69303 L 396.61692 362.33452 L 396.61692 465.51995 L 459.82029 435.1368 L 459.82029 347.69303 z "
         transform="translate(-0.00206706)" /><path
         id="path1748"
         style="display:inline;fill:url(#linearGradient33574);fill-opacity:1;fill-rule:evenodd;stroke:none;stroke-width:0.0290573;stroke-linejoin:round;stroke-dasharray:none;stroke-opacity:1;paint-order:stroke fill markers;stop-color:#000000"
         inkscape:label="front-left"
         d="M 333.92771 338.91838 L 333.92771 416.92395 L 396.62724 465.52306 L 396.62724 362.33762 L 333.92771 338.91838 z M 375.09574 372.77212 C 376.22894 372.77912 377.67023 373.02233 378.60973 373.24548 C 379.65783 373.49398 380.67593 373.83248 381.67621 374.2325 C 382.54391 374.57932 383.14905 374.81914 383.88642 375.42571 C 384.69052 376.08776 385.3967 377.10134 385.88061 378.0209 C 386.73433 379.64265 387.20212 381.85387 386.78856 383.65828 C 386.54413 384.72529 385.9448 385.77033 384.83313 386.10361 C 384.51833 386.19781 384.25428 386.18731 383.93137 386.18371 C 383.21792 386.17471 382.78565 385.87929 382.17231 385.61682 C 381.36821 385.2727 380.58201 384.94899 379.73731 384.71403 C 379.05857 384.52551 378.40521 384.43867 377.70798 384.37193 C 377.50504 384.35253 377.43197 384.32973 377.21189 384.33473 L 376.80571 384.37555 C 374.26619 384.55324 372.46251 386.06052 370.98281 388.03269 C 369.50133 390.00802 368.30972 392.42988 367.25487 394.66226 L 365.36041 398.67597 L 364.23697 401.02105 C 363.29666 403.06897 362.11758 405.6274 360.93329 407.51522 C 359.36478 410.01593 357.37664 412.59994 354.39157 413.41667 C 353.61226 413.62998 352.89602 413.70313 352.09146 413.69366 L 351.64084 413.65283 C 350.3632 413.55953 349.19679 413.16488 348.03279 412.65031 C 347.03114 412.20744 345.14787 411.13548 344.38392 410.3936 C 343.37145 409.41091 342.60709 407.7024 342.2657 406.34269 C 342.15476 405.90206 341.99517 405.02513 341.98975 404.58362 L 341.98975 403.77178 C 341.99041 403.37581 342.06388 402.98124 342.16441 402.59925 C 342.43816 401.56242 343.1866 400.74431 344.33482 401.08616 C 344.73078 401.20387 345.50804 401.71728 345.91302 401.94864 C 346.74329 402.42352 348.15384 402.99414 349.11489 403.00542 C 349.53025 403.00942 349.87665 403.01679 350.28795 402.93049 C 351.90294 402.59181 353.11194 401.41221 354.04999 400.11878 C 355.5369 398.0686 356.64943 395.61881 357.67768 393.30886 L 360.24031 387.67147 L 361.30588 385.28144 C 361.96027 383.85632 362.65392 382.45703 363.4179 381.08738 C 365.01213 378.22947 367.11693 375.44975 370.08622 373.92813 C 370.91648 373.5024 371.96327 373.15461 372.88192 372.98865 L 373.87411 372.84189 L 374.3702 372.80778 C 374.58895 372.78118 374.83423 372.77042 375.09574 372.77212 z "
         transform="translate(1.1112417e-5)" /></g></g></svg>
