<?xml version="1.0" encoding="UTF-8" standalone="no"?>
<!-- Created with Inkscape (http://www.inkscape.org/) -->

<svg
   width="2.5113177in"
   height="0.66666669in"
   viewBox="0 0 63.78747 16.933335"
   version="1.1"
   id="svg538"
   inkscape:version="1.3 (0e150ed6c4, 2023-07-21)"
   sodipodi:docname="siteLogo.svg"
   xml:space="preserve"
   inkscape:export-filename="../static/assets/img/siteLogo.svg"
   inkscape:export-xdpi="96"
   inkscape:export-ydpi="96"
   xmlns:inkscape="http://www.inkscape.org/namespaces/inkscape"
   xmlns:sodipodi="http://sodipodi.sourceforge.net/DTD/sodipodi-0.dtd"
   xmlns="http://www.w3.org/2000/svg"
   xmlns:svg="http://www.w3.org/2000/svg"><sodipodi:namedview
     id="namedview540"
     pagecolor="#333333"
     bordercolor="#666666"
     borderopacity="1.0"
     inkscape:showpageshadow="2"
     inkscape:pageopacity="0.0"
     inkscape:pagecheckerboard="true"
     inkscape:deskcolor="#d1d1d1"
     inkscape:document-units="px"
     showgrid="true"
     inkscape:zoom="1"
     inkscape:cx="288.5"
     inkscape:cy="215"
     inkscape:window-width="1920"
     inkscape:window-height="1027"
     inkscape:window-x="1775"
     inkscape:window-y="29"
     inkscape:window-maximized="1"
     inkscape:current-layer="g2"
     showguides="true"><inkscape:grid
       id="grid4"
       units="px"
       originx="-192.00002"
       originy="-64"
       spacingx="4.2333335"
       spacingy="4.2333335"
       empcolor="#0099e5"
       empopacity="0.30196078"
       color="#0099e5"
       opacity="0.14901961"
       empspacing="2"
       dotted="false"
       gridanglex="30"
       gridanglez="30"
       visible="true" /></sodipodi:namedview><defs
     id="defs535" /><g
     id="g2"
     inkscape:label="logo"
     style="display:inline;fill:#dddddd;fill-opacity:1;stroke:none;stroke-width:0.5"
     transform="matrix(2,0,0,2,-8.466669,-59.266668)"
     inkscape:export-filename="../static/assets/img/siteLogo.svg"
     inkscape:export-xdpi="96"
     inkscape:export-ydpi="96"><text
       xml:space="preserve"
       style="font-size:6.35px;line-height:1.25;font-family:Sans;-inkscape-font-specification:'Sans, Normal';font-variant-ligatures:none;fill:#ffffff;fill-opacity:1;stroke:none;stroke-width:0.132291"
       x="14.613276"
       y="36.350918"
       id="text2"><tspan
         sodipodi:role="line"
         id="tspan2"
         style="font-style:normal;font-variant:normal;font-weight:normal;font-stretch:normal;font-family:'a Apple Tea';-inkscape-font-specification:'a Apple Tea';fill:#ffffff;fill-opacity:1;stroke:none;stroke-width:0.132291"
         x="14.613276"
         y="36.350918">PYRPS</tspan></text><path
       d="M 11.490477,29.633334 H 5.4428575 c -0.668073,0 -1.209524,0.541451 -1.209524,1.209524 v 6.047619 c 0,0.668073 0.541451,1.209524 1.209524,1.209524 h 6.0476195 c 0.668073,0 1.209524,-0.541451 1.209524,-1.209524 v -6.047619 c 0,-0.668073 -0.541451,-1.209524 -1.209524,-1.209524 z m -4.8380955,6.652381 c -0.333942,0 -0.604762,-0.270819 -0.604762,-0.604762 0,-0.333941 0.27082,-0.604761 0.604762,-0.604761 0.333942,0 0.604762,0.27082 0.604762,0.604761 0,0.333943 -0.27082,0.604762 -0.604762,0.604762 z m 0,-1.814285 c -0.333942,0 -0.604762,-0.27082 -0.604762,-0.604762 0,-0.333942 0.27082,-0.604762 0.604762,-0.604762 0.333942,0 0.604762,0.27082 0.604762,0.604762 0,0.333942 -0.27082,0.604762 -0.604762,0.604762 z m 0,-1.814286 c -0.333942,0 -0.604762,-0.27082 -0.604762,-0.604762 0,-0.333942 0.27082,-0.604762 0.604762,-0.604762 0.333942,0 0.604762,0.27082 0.604762,0.604762 0,0.333942 -0.27082,0.604762 -0.604762,0.604762 z m 3.6285715,3.628571 c -0.3339415,0 -0.6047615,-0.270819 -0.6047615,-0.604762 0,-0.333941 0.27082,-0.604761 0.6047615,-0.604761 0.333942,0 0.604762,0.27082 0.604762,0.604761 0,0.333943 -0.27082,0.604762 -0.604762,0.604762 z m 0,-1.814285 c -0.3339415,0 -0.6047615,-0.27082 -0.6047615,-0.604762 0,-0.333942 0.27082,-0.604762 0.6047615,-0.604762 0.333942,0 0.604762,0.27082 0.604762,0.604762 0,0.333942 -0.27082,0.604762 -0.604762,0.604762 z m 0,-1.814286 c -0.3339415,0 -0.6047615,-0.27082 -0.6047615,-0.604762 0,-0.333942 0.27082,-0.604762 0.6047615,-0.604762 0.333942,0 0.604762,0.27082 0.604762,0.604762 0,0.333942 -0.27082,0.604762 -0.604762,0.604762 z"
       id="path1-6"
       style="fill:#ffffff;fill-opacity:1;stroke:none;stroke-width:0.132291" /></g></svg>
