<?xml version="1.0" encoding="UTF-8" standalone="no"?>
<!-- Created with Inkscape (http://www.inkscape.org/) -->

<svg
   width="128"
   height="128"
   viewBox="0 0 33.866667 33.866666"
   version="1.1"
   id="svg5"
   inkscape:version="1.2.2 (b0a8486541, 2022-12-01)"
   sodipodi:docname="logo.svg"
   inkscape:export-filename="logo.png"
   inkscape:export-xdpi="96"
   inkscape:export-ydpi="96"
   xmlns:inkscape="http://www.inkscape.org/namespaces/inkscape"
   xmlns:sodipodi="http://sodipodi.sourceforge.net/DTD/sodipodi-0.dtd"
   xmlns="http://www.w3.org/2000/svg"
   xmlns:svg="http://www.w3.org/2000/svg">
  <sodipodi:namedview
     id="namedview7"
     pagecolor="#505050"
     bordercolor="#ffffff"
     borderopacity="1"
     inkscape:showpageshadow="0"
     inkscape:pageopacity="0"
     inkscape:pagecheckerboard="1"
     inkscape:deskcolor="#505050"
     inkscape:document-units="px"
     showgrid="false"
     showguides="true"
     inkscape:zoom="1.2016208"
     inkscape:cx="-19.140813"
     inkscape:cy="64.912324"
     inkscape:window-width="1920"
     inkscape:window-height="1015"
     inkscape:window-x="0"
     inkscape:window-y="37"
     inkscape:window-maximized="1"
     inkscape:current-layer="g302" />
  <defs
     id="defs2" />
  <g
     id="g302"
     transform="matrix(0.24240178,0,0,0.24240178,-1.7641242,0.93786275)"
     inkscape:label="logo">
    <g
       id="g293"
       transform="matrix(0.13585413,0,0,0.13585413,66.655165,60.698009)">
      <path
         id="path853"
         fill="none"
         stroke="#000000"
         stroke-width="1"
         d="m -164.301,-228.28534 c 0,0 12.96458,0 12.96458,0 0,0 24.34167,0 24.34167,0 0,0 74.347916,0 74.347916,0 0,0 114.03541,0 114.03541,0 0,0 57.150004,0 57.150004,0 0,0 3.96875,0.24606 3.96875,0.24606 0,0 54.50417,0 54.50417,0 0,0 4.49792,0.26458 4.49792,0.26458 0,0 20.90208,0 20.90208,0 0,0 3.96875,0.26459 3.96875,0.26459 0,0 10.31875,0 10.31875,0 0,0 4.49792,0.26458 4.49792,0.26458 0,0 5.82083,0 5.82083,0 0,0 4.49792,0.26458 4.49792,0.26458 0,0 15.08125,0.52917 15.08125,0.52917 0,0 2.64583,0.26458 2.64583,0.26458 0,0 2.38125,0 2.38125,0 0,0 7.9375,0.74877 7.9375,0.74877 6.55373,0.635 13.73981,1.35996 19.84375,3.97934 4.0984,1.75948 6.48494,3.96346 9.78958,6.80243 0,0 7.40834,6.48494 7.40834,6.48494 0,0 3.70416,3.66977 3.70416,3.66977 0,0 2.38125,2.13784 2.38125,2.13784 0,0 6.08542,6.06425 6.08542,6.06425 0,0 2.64583,2.39448 2.64583,2.39448 0,0 10.05417,10.04887 10.05417,10.04887 0,0 2.64583,2.39448 2.64583,2.39448 0,0 8.20209,8.1915 8.20209,8.1915 0,0 10.31875,10.3161 10.31875,10.3161 0,0 3.43958,3.17765 3.43958,3.17765 0,0 92.60417,92.604166 92.60417,92.604166 0,0 9.779,9.78958 9.779,9.78958 0,0 2.65641,2.91042 2.65641,2.91042 0,0 34.39584,34.39583 34.39584,34.39583 0,0 15.61041,15.6104205 15.61041,15.6104205 0,0 7.75229,7.9375 7.75229,7.9375 0,0 3.47134,7.9374995 3.47134,7.9374995 3.21733,7.66233 5.38691,14.12346 5.9981,22.48958 0,0 0.24077,2.64584 0.24077,2.64584 0.13229,11.45645 -1.74889,19.40189 -6.27591,29.89791 0,0 -3.41842,7.67292 -3.41842,7.67292 0,0 -9.35567,9.525 -9.35567,9.525 0,0 -18.52083,18.520834 -18.52083,18.520834 0,0 -57.15,57.15 -57.15,57.15 0,0 -14.02027,14.02292 -14.02027,14.02292 0,0 -2.39448,2.64583 -2.39448,2.64583 0,0 -6.86858,6.87917 -6.86858,6.87917 0,0 -6.08542,5.82083 -6.08542,5.82083 0,0 -32.01458,32.01459 -32.01458,32.01459 0,0 -20.10834,20.10833 -20.10834,20.10833 0,0 -14.2875,14.04673 -14.2875,14.04673 0,0 -10.05416,10.02771 -10.05416,10.02771 0,0 -2.64584,2.39448 -2.64584,2.39448 0,0 -5.29166,5.2705 -5.29166,5.2705 0,0 -19.31459,17.77206 -19.31459,17.77206 -6.19389,5.33135 -14.07848,11.49879 -22.225,13.32442 -1.88912,0.42333 -3.39989,0.37835 -5.29166,0.39952 0,0 -3.96875,0.26458 -3.96875,0.26458 0,0 -4.7625,0 -4.7625,0 0,0 -4.23334,0.26458 -4.23334,0.26458 0,0 -8.73125,0 -8.73125,0 0,0 -4.49791,0.26459 -4.49791,0.26459 0,0 -14.2875,0 -14.2875,0 0,0 -4.49792,0.26458 -4.49792,0.26458 0,0 -22.225,0 -22.225,0 0,0 -3.96875,0.26458 -3.96875,0.26458 0,0 -29.10417,0 -29.10417,0 0,0 -3.96875,0.26459 -3.96875,0.26459 0,0 -43.39166,0 -43.39166,0 0,0 -3.96875,0.26458 -3.96875,0.26458 0,0 -49.477094,0 -49.477094,0 0,0 -22.48958,0 -22.48958,0 0,0 -3.96875,0.26458 -3.96875,0.26458 0,0 -113.77083,0 -113.77083,0 0,0 -56.356246,0 -56.356246,0 0,0 -28.31042,0 -28.31042,0 0,0 -3.96875,-0.26458 -3.96875,-0.26458 0,0 -64.55833,0 -64.55833,0 0,0 -3.96875,-0.26458 -3.96875,-0.26458 0,0 -32.01459,0 -32.01459,0 0,0 -3.96875,-0.26459 -3.96875,-0.26459 0,0 -20.37292,0 -20.37292,0 0,0 -3.96875,-0.26458 -3.96875,-0.26458 0,0 -12.43541,0 -12.43541,0 0,0 -3.96875,-0.26458 -3.96875,-0.26458 0,0 -6.35,0 -6.35,0 0,0 -3.96875,-0.26459 -3.96875,-0.26459 -2.09815,-0.0238 -4.28361,0.0397 -6.35,-0.40216 -2.62203,-0.56092 -7.17815,-2.90248 -9.525,-4.30742 -7.31044,-4.37885 -13.84036,-10.44046 -18.60815,-17.51542 -1.79917,-2.66964 -4.89215,-8.0301 -5.59329,-11.1125 -0.20108,-0.87577 -0.40217,-3.53748 -0.40481,-4.49791 0,0 0,-2.38125 0,-2.38125 0,0 -0.26459,-3.43959 -0.26459,-3.43959 0,0 0,-6.35 0,-6.35 0,0 -0.26458,-3.96875 -0.26458,-3.96875 0,0 0,-11.90625 0,-11.90625 0,0 -0.26458,-4.49791 -0.26458,-4.49791 0,0 0,-20.37292 0,-20.37292 0,0 -0.26459,-3.96875 -0.26459,-3.96875 0,0 0,-30.69167 0,-30.69167 0,0 -0.26458,-3.96875 -0.26458,-3.96875 0,0 0,-53.18125 0,-53.18125 0,0 -0.26458,-3.96875 -0.26458,-3.96875 0,0 0,-110.0666635 0,-110.0666635 0,0 0,-61.1187505 0,-61.1187505 0,0 0.26458,-3.96875 0.26458,-3.96875 0,0 0,-52.387496 0,-52.387496 0,0 0.26458,-3.96875 0.26458,-3.96875 0,0 0,-28.57501 0,-28.57501 0,0 0.26459,-3.96875 0.26459,-3.96875 0,0 0,-16.66875 0,-16.66875 0,0 0.26458,-4.49791 0.26458,-4.49791 0,0 0,-9.525 0,-9.525 0,0 0.26458,-3.96875 0.26458,-3.96875 0,0 0,-4.49792 0,-4.49792 0,0 0.32279,-3.96875 0.32279,-3.96875 -0.0476,-0.95779 -0.0953,-1.67746 0,-2.64583 0.61384,-3.5269 3.59569,-9.1784 5.58536,-12.17084 2.23573,-3.36021 4.73604,-6.65427 7.59619,-9.51441 2.86014,-2.86015 6.1542,-5.36046 9.51441,-7.59619 3.05859,-2.03465 8.55927,-4.95829 12.17084,-5.58536 1.13506,-0.1217 2.29393,-0.045 3.43958,0 0,0 3.43958,-0.32279 3.43958,-0.32279 0,0 5.82084,0 5.82084,0 0,0 4.49791,-0.26458 4.49791,-0.26458 0,0 12.43542,0 12.43542,0 0,0 4.49792,-0.26458 4.49792,-0.26458 0,0 21.16666,0 21.16666,0 0,0 3.96875,-0.26459 3.96875,-0.26459 0,0 34.13126,0 34.13126,0 0,0 3.96875,-0.26458 3.96875,-0.26458 0,0 20.90208,0 20.90208,0 0,0 29.63333,0 29.63333,0 0,0 15.61042,-0.24606 15.61042,-0.24606 z M 316.97608,4.3389665 c -3.4925,0.50536 -6.13833,0.8255 -9.525,2.05582 -8.82385,3.20939 -15.51516,9.6228895 -19.20081,18.2430195 -4.20158,9.82398 -3.47398,20.01308 0.86519,29.63333 1.54781,3.43694 3.7756,7.08819 6.45319,9.76577 3.24908,3.25173 7.13052,5.37369 11.35327,7.06173 2.83633,1.13506 7.00352,2.18546 10.05416,2.2225 0,0 5.02709,0 5.02709,0 8.78152,-0.0132 19.0791,-4.43706 24.79145,-11.1125 7.04057,-8.2259 9.2128,-23.3389 6.31561,-33.60208 -1.05833,-3.75709 -2.13519,-5.69648 -4.11956,-8.99584 -1.32821,-2.20927 -3.429,-5.37633 -5.29432,-7.09877 -2.17487,-2.00554 -4.2836,-3.0453495 -6.87652,-4.3444595 -6.35529,-3.175 -12.73704,-4.48733 -19.84375,-3.82852 z"
         style="display:inline;fill:#ffffff;fill-opacity:1;stroke-width:16.9333;stroke-dasharray:none"
         inkscape:label="tag" />
      <path
         d="m -38.300274,182.39965 q 28.6127818,-2.5321 43.5521987,-16.45867 15.1926273,-13.92658 15.1926273,-37.98157 0,-21.7761 -14.9394169,-36.96873 Q -9.4342817,75.798053 -38.300274,67.948529 Z m -25.321045,-283.34249 q -26.080677,1.772469 -40.513671,15.192623 -14.433,13.166943 -14.433,35.449463 0,20.256837 13.16695,33.676991 13.42015,13.4201541 41.779721,21.7760991 z M -168.45045,181.38681 v -69.88608 h 27.34673 q 1.01284,34.68983 20.25684,52.41456 19.24399,17.72473 57.225561,18.48436 V 59.592584 Q -121.85972,43.387115 -145.4083,22.370647 q -23.54857,-21.2696782 -23.54857,-56.212721 0,-40.513673 27.85315,-65.075087 27.85315,-24.561419 77.482401,-27.599939 v -67.8604 h 25.321045 v 67.8604 q 25.574256,2.02568 49.122829,8.35594 23.801782,6.07706 46.337513,16.45868 v 66.341143 H 29.560128 Q 26.521603,-64.73375 9.0500815,-81.69885 -8.4214399,-98.663951 -38.300274,-100.94284 V 13.508281 q 62.289772,16.965101 87.104397,38.99441 25.067835,21.776099 25.067835,58.491619 0,42.03293 -29.372413,67.35398 -29.372413,25.32104 -82.799819,29.1192 v 68.36682 h -25.321045 v -68.36682 q -24.308204,-0.50642 -50.388881,-7.08989 -26.08068,-6.33026 -54.44025,-18.99079 z"
         style="font-size:518.575px;line-height:1.25;font-family:'DejaVu Serif';-inkscape-font-specification:'DejaVu Serif';stroke-width:0.379815"
         id="path421"
         transform="matrix(1.0460732,0,0,0.95595605,-3.4378186e-6,-3.1799822e-6)"
         inkscape:label="$" />
    </g>
  </g>
</svg>
